<svg width="30" height="30" viewBox="0 0 30 30" fill="none" xmlns="http://www.w3.org/2000/svg">
<g clip-path="url(#clip0_1511_435)">
<path d="M30 20.2985C30 25.6634 25.6357 29.9621 20.3342 29.9621C17.3277 29.9621 14.612 28.5723 12.834 26.4071C5.72175 26.2131 0 20.363 0 13.2204C0 5.91607 5.91573 0.00146484 13.2219 0.00146484C20.3987 0.00146484 26.2176 5.72209 26.4116 12.8325C28.5776 14.6101 29.9677 17.2928 30 20.2985V20.2985ZM26.929 20.3308C26.929 16.6786 23.9871 13.7374 20.3342 13.7374C16.6809 13.7374 13.7393 16.6786 13.7393 20.3308C13.7393 23.9829 16.6809 26.9241 20.3342 26.9241C23.9871 26.9241 26.929 23.9829 26.929 20.3308ZM12.834 23.3365C12.4138 22.4315 12.2198 21.3975 12.2198 20.3308C12.2198 15.9031 15.8404 12.2505 20.3015 12.2505C21.3686 12.2505 22.403 12.5094 23.3406 12.8647C23.1467 7.4026 18.6852 3.0717 13.1897 3.0717C7.59699 3.0717 3.03872 7.59658 3.03872 13.2204C3.03872 18.6825 7.40301 23.1425 12.834 23.3365V23.3365Z" fill="#72A5C9"/>
</g>
<defs>
<clipPath id="clip0_1511_435">
<rect width="30" height="29.964" fill="white"/>
</clipPath>
</defs>
</svg>
