<svg width="29" height="29" viewBox="0 0 29 29" fill="none" xmlns="http://www.w3.org/2000/svg">
<g clip-path="url(#clip0_1511_483)">
<path fill-rule="evenodd" clip-rule="evenodd" d="M16.2307 12.8304C15.7253 12.7505 15.2062 12.7784 14.6963 12.7739C13.9388 12.7739 13.1813 12.7836 12.4277 12.7693C12.4186 14.1401 12.4186 15.5106 12.4277 16.8809C13.3372 16.8712 14.2428 16.8764 15.1504 16.8764C15.6318 16.8764 16.1248 16.8946 16.5861 16.7218C16.8972 16.6104 17.175 16.422 17.3935 16.1741C17.612 15.9262 17.764 15.6269 17.8353 15.3042C17.9425 14.7618 17.8867 14.168 17.5755 13.7003C17.2805 13.2325 16.7641 12.9376 16.2307 12.8304V12.8304Z" fill="#149F49"/>
<path fill-rule="evenodd" clip-rule="evenodd" d="M14.5 0C6.49187 0 0 6.49187 0 14.5C0 22.5081 6.49187 29 14.5 29C22.5081 29 29 22.5081 29 14.5C29 6.49187 22.5081 0 14.5 0ZM8.45833 17.0401C9.23011 17.0537 9.96875 16.5626 10.2871 15.8655C10.4351 15.5389 10.4994 15.1806 10.4742 14.8229C10.5067 14.1304 10.1701 13.4242 9.58091 13.0455C9.25609 12.8116 8.85591 12.7206 8.46288 12.6946C8.45833 12.147 8.46288 11.6045 8.45833 11.0621C9.02417 11.0855 9.57572 10.8237 9.95251 10.4073C10.3168 9.99767 10.5037 9.46031 10.4722 8.91308C10.4073 8.24915 10.0175 7.60795 9.41526 7.30392C9.12487 7.13566 8.7929 7.0746 8.46093 7.06095C8.45119 6.46199 8.46093 5.86821 8.45638 5.27379C11.0335 5.26924 13.6106 5.2647 16.1923 5.27379C17.2168 5.33875 18.2556 5.69996 19.0176 6.40612C19.5306 6.88667 19.875 7.51975 19.9999 8.21147C20.1123 9.03911 20.0375 9.94212 19.5367 10.6392C19.219 11.1349 18.7324 11.4948 18.2134 11.7663C19.0176 12.0749 19.7381 12.6407 20.1402 13.4125C20.6924 14.4701 20.6781 15.8077 20.0843 16.8413C19.677 17.5663 18.9942 18.1133 18.2322 18.4316C17.4702 18.75 16.623 18.8617 15.7999 18.8526H8.45898C8.45703 18.2465 8.46158 17.643 8.45703 17.0401H8.45833ZM20.5417 23.7236C18.9 23.7425 17.2538 23.7288 15.6044 23.7334C13.2235 23.7288 10.8432 23.7425 8.46223 23.7236C8.44794 23.0785 8.44794 22.4282 8.46223 21.7779C10.9504 21.7591 13.4391 21.7779 15.9331 21.7734C17.4676 21.7779 19.0066 21.7591 20.5404 21.7779C20.5527 22.4282 20.5527 23.0785 20.5384 23.7236H20.5417Z" fill="#149F49"/>
<path fill-rule="evenodd" clip-rule="evenodd" d="M14.8884 10.9919C15.2951 10.9828 15.7069 11.0296 16.0993 10.9029C16.7451 10.7204 17.3252 10.1825 17.4278 9.4997C17.5214 8.93841 17.4142 8.3167 17.0212 7.88599C16.6047 7.4228 15.959 7.19867 15.3464 7.22206H12.4185C12.423 8.48041 12.423 9.73357 12.4185 10.99L14.8884 10.9919Z" fill="#149F49"/>
<path d="M15.8006 18.85C16.6237 18.8591 17.4702 18.7564 18.2328 18.429C18.9955 18.1016 19.6776 17.5637 20.085 16.8387C20.6787 15.8051 20.693 14.4675 20.1408 13.4099C19.7387 12.6381 19.0183 12.0723 18.214 11.7637C18.7337 11.4921 19.2196 11.1322 19.5373 10.6366C20.0382 9.9395 20.1129 9.0365 20.0005 8.20886C19.8757 7.51714 19.5312 6.88407 19.0183 6.40351C18.2549 5.69735 17.2155 5.33679 16.193 5.27118C13.6113 5.26209 11.0342 5.26663 8.45703 5.27118C8.46158 5.8656 8.45183 6.45938 8.46158 7.05834C8.79355 7.07199 9.12551 7.13305 9.4159 7.30131C10.0188 7.60534 10.4073 8.24654 10.4729 8.91047C10.5043 9.4577 10.3174 9.99506 9.95316 10.4046C9.57377 10.8211 9.02222 11.0829 8.45898 11.0595C8.46353 11.6019 8.45898 12.1444 8.46353 12.692C8.85656 12.72 9.25869 12.809 9.58156 13.0428C10.1708 13.4216 10.5073 14.1277 10.4748 14.8203C10.5 15.178 10.4357 15.5363 10.2877 15.8629C9.9694 16.56 9.23076 17.0511 8.45898 17.0375C8.46353 17.6404 8.45898 18.2439 8.45898 18.8474L15.8006 18.85ZM17.8353 15.3042C17.7639 15.6269 17.6119 15.9262 17.3934 16.1741C17.1749 16.422 16.8971 16.6104 16.586 16.7218C16.128 16.8946 15.6317 16.8764 15.1503 16.8764C14.2408 16.8764 13.3352 16.8712 12.4276 16.8809C12.4185 15.5102 12.4185 14.1397 12.4276 12.7693C13.1812 12.7836 13.9387 12.7739 14.6962 12.7739C15.2062 12.7784 15.7252 12.7505 16.2306 12.8304C16.764 12.9376 17.2785 13.2325 17.5728 13.7003C17.8866 14.168 17.9424 14.7618 17.8353 15.3042V15.3042ZM12.4185 7.22205H15.3465C15.9591 7.19867 16.6048 7.42279 17.0213 7.88599C17.4143 8.3167 17.5215 8.93841 17.4279 9.4997C17.3253 10.1825 16.7452 10.7204 16.0994 10.9029C15.7096 11.0296 15.2952 10.9828 14.8885 10.9919H12.4198C12.4231 9.73357 12.4231 8.48041 12.4185 7.22205V7.22205Z" fill="white"/>
<path d="M15.9311 21.7734C13.4384 21.778 10.9496 21.7591 8.46018 21.778C8.44589 22.4276 8.44589 23.0772 8.46018 23.7236C10.8411 23.7425 13.2214 23.7288 15.6023 23.7334C17.2492 23.7288 18.8954 23.7425 20.5396 23.7236C20.5539 23.0785 20.5539 22.4283 20.5396 21.778C19.0045 21.7591 17.4655 21.778 15.9311 21.7734V21.7734Z" fill="#73C692"/>
</g>
<defs>
<clipPath id="clip0_1511_483">
<rect width="29" height="29" fill="white"/>
</clipPath>
</defs>
</svg>
